<svg width="950" height="180" viewBox="0 0 950 180" fill="none" xmlns="http://www.w3.org/2000/svg">
<g clip-path="url(#clip0)">
<path d="M0 100C0 136.592 25.0024 167.205 58.4718 174.912C60.688 175.422 62.7301 173.646 62.7301 171.321V153.064C62.7301 151.335 61.5744 149.841 59.9617 149.326C43.1467 143.959 30.1079 129.828 25.9446 112.155C25.4162 109.912 27.1496 107.851 29.4036 107.851H120.596C122.85 107.851 124.584 109.912 124.055 112.155C119.892 129.828 106.853 143.959 90.0384 149.326C88.4256 149.841 87.2699 151.335 87.2699 153.064V171.321C87.2699 173.646 89.312 175.422 91.5283 174.912C124.998 167.205 150 136.592 150 100C150 63.408 124.998 32.7945 91.5283 25.088C89.312 24.5777 87.2699 26.3536 87.2699 28.6792V46.9356C87.2699 48.665 88.4256 50.1588 90.0383 50.6736C106.853 56.0409 119.892 70.1715 124.055 87.8448C124.584 90.0881 122.85 92.149 120.596 92.149H29.4036C27.1496 92.149 25.4162 90.0881 25.9446 87.8448C30.1079 70.1715 43.1467 56.0409 59.9617 50.6736C61.5744 50.1588 62.7301 48.6651 62.7301 46.9356V28.6792C62.7301 26.3536 60.688 24.5777 58.4717 25.088C25.0024 32.7945 0 63.4081 0 100Z" fill="#423B0B"/>
<path d="M241.4 31.75H257.15V73.15L256.55 85.9C258.45 81.7 261.5 78.25 265.7 75.55C269.9 72.75 274.8 71.35 280.4 71.35C287.5 71.35 292.95 72.85 296.75 75.85C300.55 78.75 303.1 82.85 304.4 88.15C305.7 93.45 306.35 100.35 306.35 108.85V142H290.3V108.7C290.3 102.9 289.95 98.35 289.25 95.05C288.65 91.75 287.35 89.25 285.35 87.55C283.45 85.85 280.65 85 276.95 85C273.95 85 270.9 85.9 267.8 87.7C264.8 89.5 262.3 92.15 260.3 95.65C258.3 99.05 257.3 103.1 257.3 107.8V142H241.4V31.75ZM387.379 143.5C381.179 143.5 375.429 142.05 370.129 139.15C364.929 136.15 360.729 131.95 357.529 126.55C354.429 121.05 352.879 114.65 352.879 107.35C352.879 100.15 354.229 93.85 356.929 88.45C359.729 83.05 363.679 78.85 368.779 75.85C373.879 72.85 379.879 71.35 386.779 71.35C390.779 71.35 394.529 72.05 398.029 73.45C401.529 74.85 404.479 76.6 406.879 78.7C409.279 80.7 410.879 82.7 411.679 84.7L411.979 73.15H427.429V142H412.129L411.829 129.85C410.129 133.45 407.029 136.65 402.529 139.45C398.029 142.15 392.979 143.5 387.379 143.5ZM390.079 130C395.779 130 400.579 128.05 404.479 124.15C408.379 120.15 410.329 114.95 410.329 108.55V107.5C410.329 103.2 409.429 99.35 407.629 95.95C405.829 92.55 403.379 89.9 400.279 88C397.179 86.1 393.779 85.15 390.079 85.15C383.679 85.15 378.729 87.25 375.229 91.45C371.729 95.55 369.979 100.9 369.979 107.5C369.979 114.2 371.679 119.65 375.079 123.85C378.579 127.95 383.579 130 390.079 130ZM479.514 73.15H495.114V85.9C500.614 76.2 509.214 71.35 520.914 71.35C530.614 71.35 538.464 74.45 544.464 80.65C550.464 86.75 553.464 95.6 553.464 107.2C553.464 114.4 551.964 120.75 548.964 126.25C546.064 131.75 542.064 136 536.964 139C531.964 142 526.364 143.5 520.164 143.5C514.364 143.5 509.314 142.5 505.014 140.5C500.814 138.4 497.514 135.45 495.114 131.65L495.264 178.45H479.514V73.15ZM516.414 129.85C522.914 129.85 527.914 127.8 531.414 123.7C534.914 119.5 536.664 114.15 536.664 107.65C536.664 100.85 534.914 95.45 531.414 91.45C528.014 87.35 523.014 85.3 516.414 85.3C512.814 85.3 509.414 86.2 506.214 88C503.114 89.7 500.614 92.2 498.714 95.5C496.914 98.7 496.014 102.45 496.014 106.75V107.8C496.014 112.1 496.914 115.95 498.714 119.35C500.614 122.65 503.114 125.25 506.214 127.15C509.314 128.95 512.714 129.85 516.414 129.85ZM601.067 73.15H616.667V85.9C622.167 76.2 630.767 71.35 642.467 71.35C652.167 71.35 660.017 74.45 666.017 80.65C672.017 86.75 675.017 95.6 675.017 107.2C675.017 114.4 673.517 120.75 670.517 126.25C667.617 131.75 663.617 136 658.517 139C653.517 142 647.917 143.5 641.717 143.5C635.917 143.5 630.867 142.5 626.567 140.5C622.367 138.4 619.067 135.45 616.667 131.65L616.817 178.45H601.067V73.15ZM637.967 129.85C644.467 129.85 649.467 127.8 652.967 123.7C656.467 119.5 658.217 114.15 658.217 107.65C658.217 100.85 656.467 95.45 652.967 91.45C649.567 87.35 644.567 85.3 637.967 85.3C634.367 85.3 630.967 86.2 627.767 88C624.667 89.7 622.167 92.2 620.267 95.5C618.467 98.7 617.567 102.45 617.567 106.75V107.8C617.567 112.1 618.467 115.95 620.267 119.35C622.167 122.65 624.667 125.25 627.767 127.15C630.867 128.95 634.267 129.85 637.967 129.85ZM754.42 143.5C747.32 143.5 741.02 141.9 735.52 138.7C730.02 135.5 725.77 131.15 722.77 125.65C719.77 120.15 718.27 114.05 718.27 107.35C718.27 100.75 719.72 94.7 722.62 89.2C725.62 83.7 729.87 79.35 735.37 76.15C740.87 72.95 747.22 71.35 754.42 71.35C761.62 71.35 767.92 72.95 773.32 76.15C778.82 79.35 783.02 83.7 785.92 89.2C788.92 94.7 790.42 100.75 790.42 107.35C790.42 114.05 788.92 120.15 785.92 125.65C782.92 131.15 778.67 135.5 773.17 138.7C767.77 141.9 761.52 143.5 754.42 143.5ZM754.87 130.3C760.67 130.3 765.22 128.15 768.52 123.85C771.92 119.55 773.62 114.15 773.62 107.65C773.62 101.15 771.82 95.7 768.22 91.3C764.62 86.8 759.87 84.55 753.97 84.55C748.27 84.55 743.67 86.75 740.17 91.15C736.77 95.55 735.07 101.05 735.07 107.65C735.07 114.05 736.92 119.45 740.62 123.85C744.32 128.15 749.07 130.3 754.87 130.3ZM837.27 73.15H853.47V86.65C855.07 82.05 857.67 78.35 861.27 75.55C864.87 72.75 868.97 71.35 873.57 71.35C876.77 71.35 878.97 71.65 880.17 72.25L877.92 88.6C877.02 88 875.07 87.7 872.07 87.7C867.37 87.7 863.07 89.2 859.17 92.2C855.37 95.2 853.47 100 853.47 106.6V142H837.27V73.15ZM922.827 73.15H939.627V142H922.827V73.15ZM931.077 60.25C927.977 60.25 925.377 59.2 923.277 57.1C921.177 55 920.127 52.4 920.127 49.3C920.127 46.5 921.177 44.1 923.277 42.1C925.377 40.1 927.977 39.1 931.077 39.1C934.077 39.1 936.627 40.1 938.727 42.1C940.827 44.1 941.877 46.5 941.877 49.3C941.877 52.4 940.827 55 938.727 57.1C936.727 59.2 934.177 60.25 931.077 60.25Z" fill="#474935"/>
</g>
<defs>
<clipPath id="clip0">
<rect width="950" height="180" fill="white"/>
</clipPath>
</defs>
</svg>
