<svg width="950" height="180" viewBox="0 0 950 180" fill="none" xmlns="http://www.w3.org/2000/svg">
<g clip-path="url(#clip0)">
<path d="M0 75C0 111.592 25.0024 142.205 58.4718 149.912C60.688 150.422 62.7301 148.646 62.7301 146.321V128.064C62.7301 126.335 61.5744 124.841 59.9617 124.326C43.1467 118.959 30.1079 104.828 25.9446 87.1552C25.4162 84.9119 27.1496 82.851 29.4036 82.851H120.596C122.85 82.851 124.584 84.9119 124.055 87.1552C119.892 104.828 106.853 118.959 90.0384 124.326C88.4256 124.841 87.2699 126.335 87.2699 128.064V146.321C87.2699 148.646 89.312 150.422 91.5283 149.912C124.998 142.205 150 111.592 150 75C150 38.408 124.998 7.79453 91.5283 0.0880127C89.312 -0.422287 87.2699 1.35361 87.2699 3.67917V21.9356C87.2699 23.665 88.4256 25.1588 90.0383 25.6736C106.853 31.0409 119.892 45.1715 124.055 62.8448C124.584 65.0881 122.85 67.149 120.596 67.149H29.4036C27.1496 67.149 25.4162 65.0881 25.9446 62.8448C30.1079 45.1715 43.1467 31.0409 59.9617 25.6736C61.5744 25.1588 62.7301 23.6651 62.7301 21.9356V3.67918C62.7301 1.35361 60.688 -0.422287 58.4717 0.0880127C25.0024 7.79453 0 38.4081 0 75Z" fill="#423B0B"/>
<path d="M241.4 26.75H257.15V68.15L256.55 80.9C258.45 76.7 261.5 73.25 265.7 70.55C269.9 67.75 274.8 66.35 280.4 66.35C287.5 66.35 292.95 67.85 296.75 70.85C300.55 73.75 303.1 77.85 304.4 83.15C305.7 88.45 306.35 95.35 306.35 103.85V137H290.3V103.7C290.3 97.9 289.95 93.35 289.25 90.05C288.65 86.75 287.35 84.25 285.35 82.55C283.45 80.85 280.65 80 276.95 80C273.95 80 270.9 80.9 267.8 82.7C264.8 84.5 262.3 87.15 260.3 90.65C258.3 94.05 257.3 98.1 257.3 102.8V137H241.4V26.75ZM387.379 138.5C381.179 138.5 375.429 137.05 370.129 134.15C364.929 131.15 360.729 126.95 357.529 121.55C354.429 116.05 352.879 109.65 352.879 102.35C352.879 95.15 354.229 88.85 356.929 83.45C359.729 78.05 363.679 73.85 368.779 70.85C373.879 67.85 379.879 66.35 386.779 66.35C390.779 66.35 394.529 67.05 398.029 68.45C401.529 69.85 404.479 71.6 406.879 73.7C409.279 75.7 410.879 77.7 411.679 79.7L411.979 68.15H427.429V137H412.129L411.829 124.85C410.129 128.45 407.029 131.65 402.529 134.45C398.029 137.15 392.979 138.5 387.379 138.5ZM390.079 125C395.779 125 400.579 123.05 404.479 119.15C408.379 115.15 410.329 109.95 410.329 103.55V102.5C410.329 98.2 409.429 94.35 407.629 90.95C405.829 87.55 403.379 84.9 400.279 83C397.179 81.1 393.779 80.15 390.079 80.15C383.679 80.15 378.729 82.25 375.229 86.45C371.729 90.55 369.979 95.9 369.979 102.5C369.979 109.2 371.679 114.65 375.079 118.85C378.579 122.95 383.579 125 390.079 125ZM479.514 68.15H495.114V80.9C500.614 71.2 509.214 66.35 520.914 66.35C530.614 66.35 538.464 69.45 544.464 75.65C550.464 81.75 553.464 90.6 553.464 102.2C553.464 109.4 551.964 115.75 548.964 121.25C546.064 126.75 542.064 131 536.964 134C531.964 137 526.364 138.5 520.164 138.5C514.364 138.5 509.314 137.5 505.014 135.5C500.814 133.4 497.514 130.45 495.114 126.65L495.264 173.45H479.514V68.15ZM516.414 124.85C522.914 124.85 527.914 122.8 531.414 118.7C534.914 114.5 536.664 109.15 536.664 102.65C536.664 95.85 534.914 90.45 531.414 86.45C528.014 82.35 523.014 80.3 516.414 80.3C512.814 80.3 509.414 81.2 506.214 83C503.114 84.7 500.614 87.2 498.714 90.5C496.914 93.7 496.014 97.45 496.014 101.75V102.8C496.014 107.1 496.914 110.95 498.714 114.35C500.614 117.65 503.114 120.25 506.214 122.15C509.314 123.95 512.714 124.85 516.414 124.85ZM601.067 68.15H616.667V80.9C622.167 71.2 630.767 66.35 642.467 66.35C652.167 66.35 660.017 69.45 666.017 75.65C672.017 81.75 675.017 90.6 675.017 102.2C675.017 109.4 673.517 115.75 670.517 121.25C667.617 126.75 663.617 131 658.517 134C653.517 137 647.917 138.5 641.717 138.5C635.917 138.5 630.867 137.5 626.567 135.5C622.367 133.4 619.067 130.45 616.667 126.65L616.817 173.45H601.067V68.15ZM637.967 124.85C644.467 124.85 649.467 122.8 652.967 118.7C656.467 114.5 658.217 109.15 658.217 102.65C658.217 95.85 656.467 90.45 652.967 86.45C649.567 82.35 644.567 80.3 637.967 80.3C634.367 80.3 630.967 81.2 627.767 83C624.667 84.7 622.167 87.2 620.267 90.5C618.467 93.7 617.567 97.45 617.567 101.75V102.8C617.567 107.1 618.467 110.95 620.267 114.35C622.167 117.65 624.667 120.25 627.767 122.15C630.867 123.95 634.267 124.85 637.967 124.85ZM754.42 138.5C747.32 138.5 741.02 136.9 735.52 133.7C730.02 130.5 725.77 126.15 722.77 120.65C719.77 115.15 718.27 109.05 718.27 102.35C718.27 95.75 719.72 89.7 722.62 84.2C725.62 78.7 729.87 74.35 735.37 71.15C740.87 67.95 747.22 66.35 754.42 66.35C761.62 66.35 767.92 67.95 773.32 71.15C778.82 74.35 783.02 78.7 785.92 84.2C788.92 89.7 790.42 95.75 790.42 102.35C790.42 109.05 788.92 115.15 785.92 120.65C782.92 126.15 778.67 130.5 773.17 133.7C767.77 136.9 761.52 138.5 754.42 138.5ZM754.87 125.3C760.67 125.3 765.22 123.15 768.52 118.85C771.92 114.55 773.62 109.15 773.62 102.65C773.62 96.15 771.82 90.7 768.22 86.3C764.62 81.8 759.87 79.55 753.97 79.55C748.27 79.55 743.67 81.75 740.17 86.15C736.77 90.55 735.07 96.05 735.07 102.65C735.07 109.05 736.92 114.45 740.62 118.85C744.32 123.15 749.07 125.3 754.87 125.3ZM837.27 68.15H853.47V81.65C855.07 77.05 857.67 73.35 861.27 70.55C864.87 67.75 868.97 66.35 873.57 66.35C876.77 66.35 878.97 66.65 880.17 67.25L877.92 83.6C877.02 83 875.07 82.7 872.07 82.7C867.37 82.7 863.07 84.2 859.17 87.2C855.37 90.2 853.47 95 853.47 101.6V137H837.27V68.15ZM922.827 68.15H939.627V137H922.827V68.15ZM931.077 55.25C927.977 55.25 925.377 54.2 923.277 52.1C921.177 50 920.127 47.4 920.127 44.3C920.127 41.5 921.177 39.1 923.277 37.1C925.377 35.1 927.977 34.1 931.077 34.1C934.077 34.1 936.627 35.1 938.727 37.1C940.827 39.1 941.877 41.5 941.877 44.3C941.877 47.4 940.827 50 938.727 52.1C936.727 54.2 934.177 55.25 931.077 55.25Z" fill="#474935"/>
</g>
<defs>
<clipPath id="clip0">
<rect width="950" height="180" fill="white"/>
</clipPath>
</defs>
</svg>
